<svg xmlns="http://www.w3.org/2000/svg" xmlns:xlink="http://www.w3.org/1999/xlink" width="53" height="36" viewBox="0 0 53 36"><defs><path id="rd6wa" d="M320 706a14 14 0 1 1 28 0 14 14 0 0 1-28 0z"/><path id="rd6wb" d="M298 705.5a15.5 15.5 0 0 1 15.5-15.5h20a15.5 15.5 0 0 1 0 31h-20a15.5 15.5 0 0 1-15.5-15.5z"/><mask id="rd6wd" width="2" height="2" x="-1" y="-1"><path fill="#fff" d="M320 692h28v28h-28z"/><use xlink:href="#rd6wa"/></mask><filter id="rd6wc" width="54" height="57" x="307" y="682" filterUnits="userSpaceOnUse"><feOffset dy="3" in="SourceGraphic" result="FeOffset1121Out"/><feGaussianBlur in="FeOffset1121Out" result="FeGaussianBlur1122Out" stdDeviation="1.2 1.2"/></filter><mask id="rd6wf" width="2" height="2" x="-1" y="-1"><path fill="#fff" d="M320 692h28v28h-28z"/><use xlink:href="#rd6wa"/></mask><filter id="rd6we" width="52" height="54" x="308" y="682" filterUnits="userSpaceOnUse"><feOffset dy="2" in="SourceGraphic" result="FeOffset1132Out"/><feGaussianBlur in="FeOffset1132Out" result="FeGaussianBlur1133Out" stdDeviation="0.8 0.8"/></filter><mask id="rd6wh" width="2" height="2" x="-1" y="-1"><path fill="#fff" d="M320 692h28v28h-28z"/><use xlink:href="#rd6wa"/></mask><filter id="rd6wg" width="50" height="53" x="309" y="682" filterUnits="userSpaceOnUse"><feOffset dy="3" in="SourceGraphic" result="FeOffset1143Out"/><feGaussianBlur in="FeOffset1143Out" result="FeGaussianBlur1144Out" stdDeviation="0.4 0.4"/></filter></defs><g><g transform="translate(-298 -690)"><use fill="#005e49" xlink:href="#rd6wb"/></g><g transform="translate(-298 -690)"><g filter="url(#rd6wc)"><use fill="none" stroke-opacity=".05" stroke-width="0" mask="url(&quot;#rd6wd&quot;)" xlink:href="#rd6wa"/><use fill-opacity=".05" xlink:href="#rd6wa"/></g><g filter="url(#rd6we)"><use fill="none" stroke-opacity=".1" stroke-width="0" mask="url(&quot;#rd6wf&quot;)" xlink:href="#rd6wa"/><use fill-opacity=".1" xlink:href="#rd6wa"/></g><g filter="url(#rd6wg)"><use fill="none" stroke-opacity=".05" stroke-width="0" mask="url(&quot;#rd6wh&quot;)" xlink:href="#rd6wa"/><use fill-opacity=".05" xlink:href="#rd6wa"/></g><use fill="#fff" xlink:href="#rd6wa"/></g></g></svg>