<?xml version="1.0" encoding="UTF-8" standalone="no"?>
<svg
   xmlns:dc="http://purl.org/dc/elements/1.1/"
   xmlns:cc="http://creativecommons.org/ns#"
   xmlns:rdf="http://www.w3.org/1999/02/22-rdf-syntax-ns#"
   xmlns:svg="http://www.w3.org/2000/svg"
   xmlns="http://www.w3.org/2000/svg"
   xmlns:xlink="http://www.w3.org/1999/xlink"
   xmlns:sodipodi="http://sodipodi.sourceforge.net/DTD/sodipodi-0.dtd"
   xmlns:inkscape="http://www.inkscape.org/namespaces/inkscape"
   width="35"
   height="33"
   viewBox="0 0 35 33"
   version="1.1"
   id="svg1692"
   sodipodi:docname="m_lista.svg"
   inkscape:version="0.92.2 (5c3e80d, 2017-08-06)">
  <metadata
     id="metadata1696">
    <rdf:RDF>
      <cc:Work
         rdf:about="">
        <dc:format>image/svg+xml</dc:format>
        <dc:type
           rdf:resource="http://purl.org/dc/dcmitype/StillImage" />
      </cc:Work>
    </rdf:RDF>
  </metadata>
  <sodipodi:namedview
     pagecolor="#ffffff"
     bordercolor="#666666"
     borderopacity="1"
     objecttolerance="10"
     gridtolerance="10"
     guidetolerance="10"
     inkscape:pageopacity="0"
     inkscape:pageshadow="2"
     inkscape:window-width="1366"
     inkscape:window-height="705"
     id="namedview1694"
     showgrid="false"
     inkscape:zoom="16.242424"
     inkscape:cx="17.5"
     inkscape:cy="16.5"
     inkscape:window-x="-4"
     inkscape:window-y="-4"
     inkscape:window-maximized="1"
     inkscape:current-layer="svg1692" />
  <defs
     id="defs1676">
    <path
       id="6faja"
       d="M67 288.5a11.5 11.5 0 1 0-23 0 11.5 11.5 0 0 0 23 0z" />
    <path
       id="6fajb"
       d="M79 298.5a11.5 11.5 0 1 0-23 0 11.5 11.5 0 0 0 23 0z" />
    <path
       id="6fajc"
       d="M63.14 301.5c0-.72-.57-1.3-1.28-1.3H58a1.3 1.3 0 0 0-1.29 1.3c0 .72.58 1.3 1.29 1.3h3.86a1.3 1.3 0 0 0 1.28-1.3zm0-3.9c0-.72-.57-1.3-1.28-1.3H58a1.3 1.3 0 0 0-1.29 1.3c0 .72.58 1.3 1.29 1.3h3.86a1.3 1.3 0 0 0 1.28-1.3zm0-3.9c0-.72-.57-1.3-1.28-1.3H58a1.3 1.3 0 0 0-1.29 1.3c0 .72.58 1.3 1.29 1.3h3.86a1.3 1.3 0 0 0 1.28-1.3zm-7.71 7.8c0-.72-.58-1.3-1.29-1.3a1.3 1.3 0 0 0-1.28 1.3c0 .72.57 1.3 1.28 1.3a1.3 1.3 0 0 0 1.29-1.3zm0-3.9c0-.72-.58-1.3-1.29-1.3a1.3 1.3 0 0 0-1.28 1.3c0 .72.57 1.3 1.28 1.3a1.3 1.3 0 0 0 1.29-1.3zm0-3.9c0-.72-.58-1.3-1.29-1.3a1.3 1.3 0 0 0-1.28 1.3c0 .72.57 1.3 1.28 1.3a1.3 1.3 0 0 0 1.29-1.3zm9 10.4c0 .72-.58 1.3-1.29 1.3H52.86a1.3 1.3 0 0 1-1.29-1.3v-16.25c0-.36.29-.65.64-.65h.65c0 1.44 1.15 2.6 2.57 2.6h5.14a2.59 2.59 0 0 0 2.57-2.6h.65c.35 0 .64.3.64.65zm-7.72-19.5h2.58c.7 0 1.28.58 1.28 1.3 0 .72-.57 1.3-1.28 1.3H56.7a1.3 1.3 0 0 1-1.28-1.3c0-.72.57-1.3 1.28-1.3zm6.43 0c0-1.44-1.15-2.6-2.57-2.6h-5.14a2.59 2.59 0 0 0-2.57 2.6h-1.29a2.59 2.59 0 0 0-2.57 2.6v18.2c0 1.44 1.15 2.6 2.57 2.6h12.86a2.59 2.59 0 0 0 2.57-2.6v-18.2c0-1.44-1.15-2.6-2.57-2.6z" />
  </defs>
  <g
     id="g1688"
     transform="translate(-44,-277)">
    <use
       height="100%"
       width="100%"
       y="0"
       x="0"
       style="fill:#005e49"
       id="use1686"
       xlink:href="#6fajc" />
  </g>
</svg>
