<?xml version="1.0" encoding="UTF-8" standalone="no"?>
<svg
   xmlns:dc="http://purl.org/dc/elements/1.1/"
   xmlns:cc="http://creativecommons.org/ns#"
   xmlns:rdf="http://www.w3.org/1999/02/22-rdf-syntax-ns#"
   xmlns:svg="http://www.w3.org/2000/svg"
   xmlns="http://www.w3.org/2000/svg"
   xmlns:xlink="http://www.w3.org/1999/xlink"
   xmlns:sodipodi="http://sodipodi.sourceforge.net/DTD/sodipodi-0.dtd"
   xmlns:inkscape="http://www.inkscape.org/namespaces/inkscape"
   width="375"
   height="375"
   viewBox="0 0 375 375"
   version="1.1"
   id="svg849"
   sodipodi:docname="fondo.svg"
   inkscape:version="0.92.2 (5c3e80d, 2017-08-06)">
  <metadata
     id="metadata853">
    <rdf:RDF>
      <cc:Work
         rdf:about="">
        <dc:format>image/svg+xml</dc:format>
        <dc:type
           rdf:resource="http://purl.org/dc/dcmitype/StillImage" />
        <dc:title></dc:title>
      </cc:Work>
    </rdf:RDF>
  </metadata>
  <sodipodi:namedview
     pagecolor="#ffffff"
     bordercolor="#666666"
     borderopacity="1"
     objecttolerance="10"
     gridtolerance="10"
     guidetolerance="10"
     inkscape:pageopacity="0"
     inkscape:pageshadow="2"
     inkscape:window-width="1366"
     inkscape:window-height="705"
     id="namedview851"
     showgrid="false"
     inkscape:zoom="1.5626822"
     inkscape:cx="187.5"
     inkscape:cy="197.09701"
     inkscape:window-x="-4"
     inkscape:window-y="-4"
     inkscape:window-maximized="1"
     inkscape:current-layer="svg849" />
  <defs
     id="defs837">
    <path
       id="9xoaa"
       d="m 338,273 c 0,-73.45 60.22,-133 134.5,-133 74.28,0 134.5,59.55 134.5,133 0,73.45 -60.22,133 -134.5,133 C 398.22,406 338,346.45 338,273 Z"
       inkscape:connector-curvature="0" />
    <path
       id="9xoab"
       d="M -41,357 C -41,283.55 19.22,224 93.5,224 167.78,224 228,283.55 228,357 228,430.45 167.78,490 93.5,490 19.22,490 -41,430.45 -41,357 Z"
       inkscape:connector-curvature="0" />
  </defs>
  <g
     id="g847"
     transform="translate(-120,12)">
    <g
       transform="translate(0,-140)"
       id="g841"
       style="opacity:0.17000002">
      <use
         xlink:href="#9xoaa"
         id="use839"
         style="fill:#005e49"
         x="0"
         y="0"
         width="100%"
         height="100%" />
    </g>
    <g
       transform="translate(0,-140)"
       id="g845"
       style="opacity:0.17000002">
      <use
         xlink:href="#9xoab"
         id="use843"
         style="fill:#005e49"
         x="0"
         y="0"
         width="100%"
         height="100%" />
    </g>
  </g>
</svg>
