<?xml version="1.0" encoding="UTF-8" standalone="no"?>
<svg
   xmlns:osb="http://www.openswatchbook.org/uri/2009/osb"
   xmlns:dc="http://purl.org/dc/elements/1.1/"
   xmlns:cc="http://creativecommons.org/ns#"
   xmlns:rdf="http://www.w3.org/1999/02/22-rdf-syntax-ns#"
   xmlns:svg="http://www.w3.org/2000/svg"
   xmlns="http://www.w3.org/2000/svg"
   xmlns:sodipodi="http://sodipodi.sourceforge.net/DTD/sodipodi-0.dtd"
   xmlns:inkscape="http://www.inkscape.org/namespaces/inkscape"
   width="46"
   height="30"
   viewBox="0 0 46 30"
   version="1.1"
   id="svg1406"
   sodipodi:docname="sexo.svg"
   inkscape:version="0.92.2 (5c3e80d, 2017-08-06)">
  <metadata
     id="metadata1410">
    <rdf:RDF>
      <cc:Work
         rdf:about="">
        <dc:format>image/svg+xml</dc:format>
        <dc:type
           rdf:resource="http://purl.org/dc/dcmitype/StillImage" />
        <dc:title></dc:title>
      </cc:Work>
    </rdf:RDF>
  </metadata>
  <sodipodi:namedview
     pagecolor="#ffffff"
     bordercolor="#666666"
     borderopacity="1"
     objecttolerance="10"
     gridtolerance="10"
     guidetolerance="10"
     inkscape:pageopacity="0"
     inkscape:pageshadow="2"
     inkscape:window-width="1366"
     inkscape:window-height="705"
     id="namedview1408"
     showgrid="false"
     inkscape:zoom="6.3168205"
     inkscape:cx="31.859787"
     inkscape:cy="14.787329"
     inkscape:window-x="-4"
     inkscape:window-y="-4"
     inkscape:window-maximized="1"
     inkscape:current-layer="svg1406" />
  <defs
     id="defs1390">
    <linearGradient
       id="linearGradient1416"
       osb:paint="solid">
      <stop
         style="stop-color:#005e49;stop-opacity:1;"
         offset="0"
         id="stop1414" />
    </linearGradient>
    <path
       id="83zba"
       d="M29 538.56a2.56 2.56 0 0 1 2.56-2.56h38.08a2.56 2.56 0 0 1 2.56 2.56v22.08a2.56 2.56 0 0 1-2.56 2.56H31.56a2.56 2.56 0 0 1-2.56-2.56z" />
    <path
       d="M50 225.75a3.47 3.47 0 1 1-.01 6.93 3.47 3.47 0 0 1 .01-6.93zm5.2 3.46a5.21 5.21 0 1 0-10.42 0 5.21 5.21 0 0 0 10.43 0zm3.05 15.51h-16.5v-4.05c0-1.03.4-2.03 1.07-2.69.34-.34.91-.75 1.72-.72.44.01 1.83 0 3.5-.01l7.31-.03c2 0 2.9 1.62 2.9 3.13zm-10.21-9.22l-3.48.01a4.12 4.12 0 0 0-2.96 1.22c-1 .98-1.6 2.45-1.6 3.94v4.92c0 .48.4.88.87.88h18.26c.48 0 .87-.4.87-.88v-5.24c0-2.36-1.63-4.88-4.65-4.88l-7.31.03z"
       id="g41ua" />
  </defs>
  <g
     id="g1035"
     transform="matrix(0.0426326,0,0,0.0426326,12.086097,4.0860544)"
     style="fill:#005e49;fill-opacity:1">
    <g
       id="g978"
       style="fill:#005e49;fill-opacity:1">
      <g
         id="g976"
         style="fill:#005e49;fill-opacity:1">
        <path
           id="path974"
           d="m 403.921,0 v 31.347 h 35.36 l -68.982,65.409 c -24.421,-24.99 -58.474,-40.53 -96.092,-40.53 -50.603,0 -94.759,28.112 -117.687,69.535 -1.964,-0.086 -3.938,-0.138 -5.924,-0.138 -74.118,0 -134.417,60.299 -134.417,134.418 0,68.816 51.984,125.71 118.743,133.498 v 41.657 H 87.995 v 31.347 h 46.929 V 512 h 31.347 v -45.458 h 48.977 v -31.347 h -48.977 v -41.657 c 43.948,-5.127 81.488,-31.533 102.013,-68.616 1.964,0.086 3.937,0.138 5.922,0.138 74.119,0 134.418,-60.299 134.418,-134.417 0,-25.187 -6.969,-48.774 -19.071,-68.944 l 74.919,-71.038 v 38.933 h 31.347 V 0 Z M 150.598,363.11 c -56.833,0 -103.07,-46.237 -103.07,-103.071 0,-54.619 42.705,-99.442 96.477,-102.853 -2.751,10.7 -4.215,21.91 -4.215,33.457 0,60.464 40.132,111.726 95.157,128.562 -18.666,26.533 -49.515,43.905 -84.349,43.905 z m 98.446,-72.51 c -44.709,-11.26 -77.906,-51.802 -77.906,-99.957 0,-10.636 1.62,-20.901 4.625,-30.561 44.709,11.26 77.906,51.803 77.906,99.958 0,10.636 -1.621,20.9 -4.625,30.56 z m 31.757,2.895 c 2.751,-10.7 4.215,-21.909 4.215,-33.456 0,-60.464 -40.132,-111.726 -95.156,-128.563 18.666,-26.532 49.516,-43.905 84.349,-43.905 56.834,0 103.071,46.237 103.071,103.071 -0.002,54.619 -42.707,99.443 -96.479,102.853 z"
           inkscape:connector-curvature="0"
           style="fill:#005e49;fill-opacity:1" />
      </g>
    </g>
    <g
       id="g980"
       style="fill:#005e49;fill-opacity:1" />
    <g
       id="g982"
       style="fill:#005e49;fill-opacity:1" />
    <g
       id="g984"
       style="fill:#005e49;fill-opacity:1" />
    <g
       id="g986"
       style="fill:#005e49;fill-opacity:1" />
    <g
       id="g988"
       style="fill:#005e49;fill-opacity:1" />
    <g
       id="g990"
       style="fill:#005e49;fill-opacity:1" />
    <g
       id="g992"
       style="fill:#005e49;fill-opacity:1" />
    <g
       id="g994"
       style="fill:#005e49;fill-opacity:1" />
    <g
       id="g996"
       style="fill:#005e49;fill-opacity:1" />
    <g
       id="g998"
       style="fill:#005e49;fill-opacity:1" />
    <g
       id="g1000"
       style="fill:#005e49;fill-opacity:1" />
    <g
       id="g1002"
       style="fill:#005e49;fill-opacity:1" />
    <g
       id="g1004"
       style="fill:#005e49;fill-opacity:1" />
    <g
       id="g1006"
       style="fill:#005e49;fill-opacity:1" />
    <g
       id="g1008"
       style="fill:#005e49;fill-opacity:1" />
  </g>
</svg>
